<?xml version="1.0" encoding="UTF-8"?><svg id="Capa_1" xmlns="http://www.w3.org/2000/svg" width="200" height="80" viewBox="0 0 200 80"><path d="m54.4212790528,13.2512796442h3.8541554635l8.569451129,13.3883792112,8.5719181641-13.3883792112h3.8887005436v24.2994400917h-5.4037142319v-13.4574684302l-5.2655376764,8.2264767752h-3.5802693875l-5.2655367351-8.226475834v13.457467489h-5.3691696224s0-24.2994400917.0000023531-24.2994400917Z" fill="#211915"/><path d="m82.4391641463,29.1885343815c0-4.9916497179,3.4075468105-8.7076286258,8.0192100594-8.7076286258,1.8579889833,0,3.4766350883.6538744275,4.6116632489,1.7198124278v-1.3768371328h5.1619033772v16.7293066616h-5.1619033772v-1.3768371328c-1.1350281606,1.0659380003-2.7536742655,1.7198124278-4.6116632489,1.7198124278-4.6116632489,0-8.0192100594-3.718445943-8.0192100594-8.7076286258Zm12.8381381416,0c0-2.3416088102-1.5150136883-3.9577888214-3.7184440605-3.9577888214s-3.7850662444,1.6531911851-3.7850662444,3.9577888214c0,2.304596695,1.5841019661,3.9577888214,3.7529919644,3.9577888214s3.7529919644-1.618646105,3.7529919644-3.9577888214h-.0024736239Z" fill="#211915"/><path d="m103.9503886574,20.8238810507h5.2655357939v1.3422920526c1.1695722995-1.0659380003,2.8227625433-1.687735324,4.6807515267-1.687735324,3.6838999216,0,6.3684859094,2.92639496,6.3684859094,6.3684859094v10.7037960472h-5.2655357939v-9.5342237477c0-1.7543565667-1.2041164383-2.92639496-2.8573029172-2.92639496s-2.92639496,1.1695704169-2.92639496,2.92639496v9.5342237477h-5.2655357939v-16.7268386852h-.000003765Z" fill="#211915"/><path d="m135.2376421233,20.8238810507v1.3768371328c-1.1350281606-1.0659380003-2.7536742655-1.7198124278-4.6116632489-1.7198124278-4.6116632489,0-8.0192100594,3.718445943-8.0192100594,8.7076286258s3.4075468105,8.7100966022,8.0192100594,8.7100966022c1.8579889833,0,3.4766350883-.6538744275,4.6116632489-1.7198124278v1.3768371328h5.1619071422v-16.7317746379h-5.1619071422Zm-3.5457233661,12.3224402697c-2.1688899983,0-3.7529881994-1.6531902439-3.7529881994-3.9577888214s1.5841057311-3.9577888214,3.7850662444-3.9577888214,3.7184478255,1.6186470462,3.7184478255,3.9577888214c0,2.3391427164-1.5150174533,3.9577888214-3.7529881994,3.9577888214h.0024623288Z" fill="#211915"/><path d="m106.9236657555,59.8910035802c0-4.9916487766,3.4075468105-8.7076305083,8.15739038-8.7076305083,1.6877343827,0,3.2348223511.5156959894,4.3723203705,1.4113812717v-9.3269589144h5.2655357939v24.9878595994h-5.1619071422v-1.2041164383c-1.1695685344.96477356-2.7536742655,1.5495578272-4.4734866933,1.5495578272-4.7498398044,0-8.157386615-3.7184478255-8.157386615-8.7076305083l-.0024660938-.0024623288Zm12.8381343766,0c0-2.3416106928-1.5150174533-3.9577907039-3.7184478255-3.9577907039s-3.7850662444,1.6531902439-3.7850662444,3.9577907039,1.5841057311,3.9577907039,3.7529881994,3.9577907039,3.7529881994-1.618646105,3.7529881994-3.9577907039h-.0024623288Z" fill="#211915"/><path d="m127.3344024798,59.8910035802c0-4.9916487766,3.8887024261-8.7421708822,8.9839836194-8.7421708822s8.433739726,3.5111792272,8.433739726,8.3646514483c0,.6193284061-.0690882778,1.2386605772-.2418127372,2.0997979555l-11.9770007633.0345441389c.5502438934,1.8579889833,1.9961655389,2.92639496,4.1305076333,2.92639496,1.6531940089,0,2.9954870028-.5502401283,3.9923310778-1.7198124278l2.8918508211,2.8918508211c-1.6531940089,1.9270772611-4.0268789817,2.8918508211-6.849641525,2.8918508211-5.4382602533,0-9.3615030533-3.6493557827-9.3615030533-8.7421746472l-.0024547988-.0049321877Zm5.1964475161-1.8579889833l7.2962492367-.0345441389c-.4120673378-1.8579889833-1.5841057311-2.8227625433-3.4766350883-2.8227625433s-3.3039181589,1.0659398828-3.8196141484,2.8573066822Z" fill="#211915"/><g><path d="m152.5023848201,20.4216875008v47.8339712927h-5.2655357939V20.3846753856l5.2655357939.0370121152Z" fill="#211915"/><path d="m152.5319930063,68.2877368386h-5.329691884V20.3525982818l5.329691884.0370121152v47.8981264416Zm-5.2655357939-.0616862312h5.2038495626V20.4537636634l-5.2038495626-.0370121152v47.8092990592Z" fill="#211915"/></g><path d="m47.4680069937,40.3068600953h9.7414895223c7.2962482954,0,12.7690489226,4.9916487766,12.7690489226,12.1497214577s-5.4382583708,12.1497214577-12.6999615861,12.1497214577h-9.8105768588v-24.2994429155Zm5.4037137613,4.7152956655v14.8343036805h4.268686542c4.4068645094,0,7.2962473541-2.7882184044,7.2962473541-7.4344257922s-2.92639496-7.3998816533-7.2962473541-7.3998816533h-4.2686870126l.0000004706.000003765Z" fill="#211915"/><path d="m73.9017901211,37.2990407408h5.4037142319v27.30726227h-5.4037142319v-27.30726227Z" fill="#211915"/><path d="m91.3195153491,40.3068600953h4.88801636l9.5342237477,24.2994429155h-5.7146133644l-1.618646105-4.4068645094h-9.4996796088l-1.618646105,4.4068645094h-5.6109809478l9.6378561644-24.299441033.0024698589-.0000018825Zm5.5073485311,15.4881799905l-3.1311936995-8.6730863694-3.1657378383,8.6730826044h6.2993976316l-.0024660938.000003765Z" fill="#211915"/><path d="m121.1139650313,21.7985236923l-4.2094678165-3.2520981855c1.8949992161-2.4526442147,3.8492223345-4.2958291049,5.8083776407-5.482672062,1.6852645239-1.0190565681,3.4223509036-1.5865698248,5.1619071422-1.6828004302.9771077942-.0542838832,2.7215962205.0148046961,5.1347612849.1135026749,1.0906158813.0444140882,2.3268028346.0937630703,3.64441983.1381771438.293627063.0098697876.5329699414.0172721577.7328327282.0246744984.6892412252.0230295044,1.6367408332.0419466266,2.8424988241.0567513374,5.8034379229.0715560188,7.6490926721,1.0708729823,9.1715046419,2.1762901329l.0740204654.0542839494c2.2552522281,1.6334516099,3.0547033751,4.5425740299,3.0547033751,6.5362730043h-5.3198199786c0-.6588084977-.3034989685-1.8308473616-.8537353318-2.2281063707l-.0838923709-.0616862312c-.3873913393-.2812890638-.6415383108-.4663477575-1.3102149488-.661276474-1.046196072-.3034961447-2.6623798481-.4712827689-4.7967219426-.4984248613-1.8333129848-.0222070809-1.8678608887-.0222070809-2.95846924-.0592187255-.1998627868-.0074025172-.4342734775-.0148045637-.7279005405-.0246745866-1.3373608062-.0444141618-2.583419665-.0937628644-3.6814375928-.1381770262-2.0948620028-.0838933121-3.905968848-.1554490956-4.6289372008-.1159699453-2.6845859878.1480470491-5.3173501197,2.8597737173-7.0544364994,5.1051530987l.0000075301-.0000009413Z" fill="#211915"/></svg>