<?xml version="1.0" encoding="UTF-8"?>
<svg id="Capa_1" data-name="Capa 1" xmlns="http://www.w3.org/2000/svg" viewBox="0 0 425.8 232.11">
  <defs>
    <style>
      .cls-1 {
        fill: #92a77c;
      }
    </style>
  </defs>
  <path class="cls-1" d="m28.18,7.66h15.62l34.73,54.26L113.27,7.66h15.76v98.48h-21.9v-54.54l-21.34,33.34h-14.51l-21.34-33.34v54.54h-21.76V7.66Z"/>
  <path class="cls-1" d="m141.73,72.25c0-20.23,13.81-35.29,32.5-35.29,7.53,0,14.09,2.65,18.69,6.97v-5.58h20.92v67.8h-20.92v-5.58c-4.6,4.32-11.16,6.97-18.69,6.97-18.69,0-32.5-15.07-32.5-35.29Zm52.03,0c0-9.49-6.14-16.04-15.07-16.04s-15.34,6.7-15.34,16.04,6.42,16.04,15.21,16.04,15.21-6.56,15.21-16.04Z"/>
  <path class="cls-1" d="m228.91,38.35h21.34v5.44c4.74-4.32,11.44-6.84,18.97-6.84,14.93,0,25.81,11.86,25.81,25.81v43.38h-21.34v-38.64c0-7.11-4.88-11.86-11.58-11.86s-11.86,4.74-11.86,11.86v38.64h-21.34V38.35Z"/>
  <path class="cls-1" d="m355.71,38.35v5.58c-4.6-4.32-11.16-6.97-18.69-6.97-18.69,0-32.5,15.07-32.5,35.29s13.81,35.3,32.5,35.3c7.53,0,14.09-2.65,18.69-6.97v5.58h20.92V38.35h-20.92Zm-14.37,49.94c-8.79,0-15.21-6.7-15.21-16.04s6.42-16.04,15.34-16.04,15.07,6.56,15.07,16.04-6.14,16.04-15.21,16.04Z"/>
  <path class="cls-1" d="m240.96,196.68c0-20.23,13.81-35.29,33.06-35.29,6.84,0,13.11,2.09,17.72,5.72v-37.8h21.34v101.27h-20.92v-4.88c-4.74,3.91-11.16,6.28-18.13,6.28-19.25,0-33.06-15.07-33.06-35.29Zm52.03,0c0-9.49-6.14-16.04-15.07-16.04s-15.34,6.7-15.34,16.04,6.42,16.04,15.21,16.04,15.21-6.56,15.21-16.04Z"/>
  <path class="cls-1" d="m323.68,196.68c0-20.23,15.76-35.43,36.41-35.43s34.18,14.23,34.18,33.9c0,2.51-.28,5.02-.98,8.51l-48.54.14c2.23,7.53,8.09,11.86,16.74,11.86,6.7,0,12.14-2.23,16.18-6.97l11.72,11.72c-6.7,7.81-16.32,11.72-27.76,11.72-22.04,0-37.94-14.79-37.94-35.43Zm21.06-7.53l29.57-.14c-1.67-7.53-6.42-11.44-14.09-11.44s-13.39,4.32-15.48,11.58Z"/>
  <g>
    <path class="cls-1" d="m425.68,36.72v193.86h-21.34V36.57l21.34.15Z"/>
    <path class="cls-1" d="m425.8,230.71h-21.6V36.44l21.6.15v194.11Zm-21.34-.25h21.09V36.85l-21.09-.15v193.75Z"/>
  </g>
  <path class="cls-1" d="m0,117.31h39.48c29.57,0,51.75,20.23,51.75,49.24s-22.04,49.24-51.47,49.24H0v-98.48Zm21.9,19.11v60.12h17.3c17.86,0,29.57-11.3,29.57-30.13s-11.86-29.99-29.57-29.99h-17.3Z"/>
  <path class="cls-1" d="m107.13,105.12h21.9v110.67h-21.9v-110.67Z"/>
  <path class="cls-1" d="m177.72,117.31h19.81l38.64,98.48h-23.16l-6.56-17.86h-38.5l-6.56,17.86h-22.74l39.06-98.48Zm22.32,62.77l-12.69-35.15-12.83,35.15h25.53Z"/>
  <path class="cls-1" d="m298.47,42.3l-17.06-13.18c7.68-9.94,15.6-17.41,23.54-22.22,6.83-4.13,13.87-6.43,20.92-6.82,3.96-.22,11.03.06,20.81.46,4.42.18,9.43.38,14.77.56,1.19.04,2.16.07,2.97.1q4.19.14,11.52.23c23.52.29,31,4.34,37.17,8.82l.3.22c9.14,6.62,12.38,18.41,12.38,26.49h-21.56c0-2.67-1.23-7.42-3.46-9.03l-.34-.25c-1.57-1.14-2.6-1.89-5.31-2.68-4.24-1.23-10.79-1.91-19.44-2.02-7.43-.09-7.57-.09-11.99-.24-.81-.03-1.76-.06-2.95-.1-5.42-.18-10.47-.38-14.92-.56-8.49-.34-15.83-.63-18.76-.47-10.88.6-21.55,11.59-28.59,20.69Z"/>
</svg>
