<?xml version="1.0" encoding="UTF-8"?>
<svg id="Capa_1" data-name="Capa 1" xmlns="http://www.w3.org/2000/svg" viewBox="0 0 200 80">
  <path d="m54.42,13.25h3.85l8.57,13.39,8.57-13.39h3.89v24.3h-5.4v-13.46l-5.27,8.23h-3.58l-5.27-8.23v13.46h-5.37s0-24.3,0-24.3Z" style="fill: #211915;"/>
  <path d="m82.44,29.19c0-4.99,3.41-8.71,8.02-8.71,1.86,0,3.48.65,4.61,1.72v-1.38h5.16v16.73h-5.16v-1.38c-1.14,1.07-2.75,1.72-4.61,1.72-4.61,0-8.02-3.72-8.02-8.71Zm12.84,0c0-2.34-1.52-3.96-3.72-3.96s-3.79,1.65-3.79,3.96,1.58,3.96,3.75,3.96,3.75-1.62,3.75-3.96h0Z" style="fill: #211915;"/>
  <path d="m103.95,20.82h5.27v1.34c1.17-1.07,2.82-1.69,4.68-1.69,3.68,0,6.37,2.93,6.37,6.37v10.7h-5.27v-9.53c0-1.75-1.2-2.93-2.86-2.93s-2.93,1.17-2.93,2.93v9.53h-5.27v-16.73h0Z" style="fill: #211915;"/>
  <path d="m135.24,20.82v1.38c-1.14-1.07-2.75-1.72-4.61-1.72-4.61,0-8.02,3.72-8.02,8.71s3.41,8.71,8.02,8.71c1.86,0,3.48-.65,4.61-1.72v1.38h5.16v-16.73h-5.16Zm-3.55,12.32c-2.17,0-3.75-1.65-3.75-3.96s1.58-3.96,3.79-3.96,3.72,1.62,3.72,3.96-1.52,3.96-3.75,3.96h0Z" style="fill: #211915;"/>
  <path d="m106.92,59.89c0-4.99,3.41-8.71,8.16-8.71,1.69,0,3.23.52,4.37,1.41v-9.33h5.27v24.99h-5.16v-1.2c-1.17.96-2.75,1.55-4.47,1.55-4.75,0-8.16-3.72-8.16-8.71h0Zm12.84,0c0-2.34-1.52-3.96-3.72-3.96s-3.79,1.65-3.79,3.96,1.58,3.96,3.75,3.96,3.75-1.62,3.75-3.96h0Z" style="fill: #211915;"/>
  <path d="m127.33,59.89c0-4.99,3.89-8.74,8.98-8.74s8.43,3.51,8.43,8.36c0,.62-.07,1.24-.24,2.1l-11.98.03c.55,1.86,2,2.93,4.13,2.93,1.65,0,3-.55,3.99-1.72l2.89,2.89c-1.65,1.93-4.03,2.89-6.85,2.89-5.44,0-9.36-3.65-9.36-8.74h0Zm5.2-1.86l7.3-.03c-.41-1.86-1.58-2.82-3.48-2.82s-3.3,1.07-3.82,2.86Z" style="fill: #211915;"/>
  <g>
    <path d="m152.5,20.42v47.83h-5.27V20.38l5.27.04Z" style="fill: #211915;"/>
    <path d="m152.53,68.29h-5.33V20.35l5.33.04v47.9h0Zm-5.27-.06h5.2V20.45l-5.2-.04v47.81h0Z" style="fill: #211915;"/>
  </g>
  <path d="m47.47,40.31h9.74c7.3,0,12.77,4.99,12.77,12.15s-5.44,12.15-12.7,12.15h-9.81v-24.3Zm5.4,4.72v14.83h4.27c4.41,0,7.3-2.79,7.3-7.43s-2.93-7.4-7.3-7.4h-4.27,0Z" style="fill: #211915;"/>
  <path d="m73.9,37.3h5.4v27.31h-5.4v-27.31Z" style="fill: #211915;"/>
  <path d="m91.32,40.31h4.89l9.53,24.3h-5.71l-1.62-4.41h-9.5l-1.62,4.41h-5.61l9.64-24.3h0Zm5.51,15.49l-3.13-8.67-3.17,8.67h6.3,0Z" style="fill: #211915;"/>
  <path d="m121.11,21.8l-4.21-3.25c1.89-2.45,3.85-4.3,5.81-5.48,1.69-1.02,3.42-1.59,5.16-1.68.98-.05,2.72.01,5.13.11,1.09.04,2.33.09,3.64.14.29,0,.53.02.73.02.69.02,1.64.04,2.84.06,5.8.07,7.65,1.07,9.17,2.18l.07.05c2.26,1.63,3.05,4.54,3.05,6.54h-5.32c0-.66-.3-1.83-.85-2.23l-.08-.06c-.39-.28-.64-.47-1.31-.66-1.05-.3-2.66-.47-4.8-.5-1.83-.02-1.87-.02-2.96-.06-.2,0-.43-.01-.73-.02-1.34-.04-2.58-.09-3.68-.14-2.09-.08-3.91-.16-4.63-.12-2.68.15-5.32,2.86-7.05,5.11h0Z" style="fill: #211915;"/>
</svg>