<?xml version="1.0" encoding="UTF-8"?><svg id="Capa_1" xmlns="http://www.w3.org/2000/svg" width="200" height="80" viewBox="0 0 200 80"><path d="m71.240275826,23.1218208091h2.4319341515l5.4072392922,8.4479354675,5.408795967-8.4479354675h2.453731757v15.3327074586h-3.4096904783v-8.4915300844l-3.3225024321,5.1908258517h-2.2591147341l-3.3225018382-5.1908252578v8.4915294905h-3.3878931698s0-15.3327074586.0000014848-15.3327074586Z" fill="#211915"/><path d="m88.9192854709,33.1780716386c0-3.1496818269,2.1501284886-5.4944279322,5.0600425946-5.4944279322,1.1723727557,0,2.1937225116.4125883261,2.9099141061,1.0851847096v-.8687706752h3.2571102097v10.5560277957h-3.2571102097v-.8687706752c-.7161915944.6725963835-1.7375413504,1.0851847096-2.9099141061,1.0851847096-2.9099141061,0-5.0600425946-2.3463027802-5.0600425946-5.4944279322Zm8.1007387699,0c0-1.477532105-.9559587213-2.49732578-2.3463015924-2.49732578s-2.3883395345,1.0431473614-2.3883395345,2.49732578c0,1.4541778247.9995527444,2.49732578,2.3681009796,2.49732578s2.3681009796-1.0213497559,2.3681009796-2.49732578h-.0015608323Z" fill="#211915"/><path d="m102.4926563494,27.9000577408h3.3225012443v.8469730697c.737988606-.6725963835,1.7811353734-1.0649443729,2.9535081291-1.0649443729,2.3245045808,0,4.0184519081,1.846526408,4.0184519081,4.0184519081v6.7539899219h-3.3225012443v-6.016001316c0-1.1069817211-.7597856175-1.846526408-1.8029300093-1.846526408s-1.846526408.7379874181-1.846526408,1.846526408v6.016001316h-3.3225012443v-10.5544705269h-.0000023757Z" fill="#211915"/><path d="m122.2346052488,27.9000577408v.8687706752c-.7161915944-.6725963835-1.7375413504-1.0851847096-2.9099141061-1.0851847096-2.9099141061,0-5.0600425946,2.3463027802-5.0600425946,5.4944279322s2.1501284886,5.495985201,5.0600425946,5.495985201c1.1723727557,0,2.1937225116-.4125883261,2.9099141061-1.0851847096v.8687706752h3.2571125854v-10.5575850644h-3.2571125854Zm-2.2373165347,7.77533849c-1.3685482352,0-2.3680986039-1.0431467674-2.3680986039-2.49732578s.9995551201-2.49732578,2.3883395345-2.49732578,2.3463039681,1.0213503498,2.3463039681,2.49732578c0,1.4759760241-.955961097,2.49732578-2.3680986039,2.49732578h.0015537052Z" fill="#211915"/><path d="m104.368764925,52.551027423c0-3.1496812329,2.1501284886-5.4944291201,5.1472330165-5.4944291201,1.064943779,0,2.0411410552.3253990921,2.7588911063.8905676867v-5.8852192468h3.3225012443v15.7670933901h-3.2571125854v-.7597856175c-.7379862303.6087626177-1.7375413504.9777557328-2.8227260599.9777557328-2.9971021522,0-5.1472306408-2.3463039681-5.1472306408-5.4944291201l-.0015560809-.0015537052Zm8.1007363942,0c0-1.4775332929-.955961097-2.4973269679-2.3463039681-2.4973269679s-2.3883395345,1.0431467674-2.3883395345,2.4973269679.9995551201,2.4973269679,2.3680986039,2.4973269679,2.3680986039-1.0213497559,2.3680986039-2.4973269679h-.0015537052Z" fill="#211915"/><path d="m117.2477388449,52.551027423c0-3.1496812329,2.4537329448-5.5162237559,5.6688052124-5.5162237559s5.321606733,2.2155195232,5.321606733,5.27801271c0,.3907901267-.0435940231.781582629-.1525814564,1.3249518365l-7.5573695625.0217970115c.3471984793,1.1723727557,1.2595608019,1.846526408,2.6063096498,1.846526408,1.0431491431,0,1.8901228068-.3471961036,2.5191216037-1.0851847096l1.8247293965,1.8247293965c-1.0431491431,1.2159667788-2.5409209909,1.8247293965-4.3220563644,1.8247293965-3.4314886777,0-5.9070162583-2.3027075693-5.9070162583-5.5162261316l-.0015489538-.0031121619Zm3.2789072212-1.1723727557l4.6038614334-.0217970115c-.2600104332-1.1723727557-.9995551201-1.7811353734-2.1937225116-1.7811353734s-2.0847398297.6725975714-2.4101389217,1.802932385Z" fill="#211915"/><g><path d="m133.1284879111,27.6462775706v30.182764938h-3.3225012443v-30.2061192183l3.3225012443.0233542803Z" fill="#211915"/><path d="m133.1471703851,57.8492834392h-3.3629831055v-30.2466004856l3.3629831055.0233542803v30.2232462053Zm-3.3225012443-.0389234046h3.2835778397v-30.1438427213l-3.2835778397-.0233542803v30.1671970016Z" fill="#211915"/></g><path d="m66.8528296149,40.193625699h6.1467839791c4.6038608394,0,8.0571441529,3.1496812329,8.0571441529,7.6663546202s-3.4314874898,7.6663546202-8.0135507238,7.6663546202h-6.1903774082v-15.3327092404Zm3.4096901813,2.9753051407v9.3602995718h2.6934991808c2.7806881178,0,4.6038602455-1.7593383619,4.6038602455-4.6910494795s-1.846526408-4.669252468-4.6038602455-4.669252468h-2.6934994777l.000000297.0000023757Z" fill="#211915"/><path d="m83.5322865154,38.2957212997h3.4096904783v17.2306136397h-3.4096904783v-17.2306136397Z" fill="#211915"/><path d="m94.5226996487,40.193625699h3.0842901983l6.016001316,15.3327092404h-3.6058647699l-1.0213497559-2.7806881178h-5.9942043044l-1.0213497559,2.7806881178h-3.5404737353l6.0813923506-15.3327080525.0015584566-.0000011878Zm3.4750827007,9.7728890857l-1.9757523963-5.4726321085-1.9975494078,5.4726297329h3.9748578851l-.0015560809.0000023757Z" fill="#211915"/><path d="m113.322704058,28.5150476519l-2.656132748-2.0520419367c1.1957258482-1.5475943521,2.4288213957-2.7106258708,3.6650291051-3.4595120916,1.0633853224-.6430146614,2.1594697256-1.0011099389,3.2571125854-1.0618305035.6165453981-.0342525958,1.7173004198.0093416175,3.2399838166.0716190704.6881678835.0280248524,1.4681896802.0591635742,2.2995930317.0871884173.1852757859.0062277388.3362987857.0108985614.4624102364.0155693655.4349044272.0145313905,1.0327673513.0264679084,1.7935887723.0358095352,3.6619121918.0451511434,4.8265021672.6757103086,5.7871291313,1.3732176473l.0467061849.0342526376c1.4230419519,1.0306918838,1.9274877547,2.8663194891,1.9274877547,4.124323913h-3.3567540304c0-.4157016758-.191504861-1.1552466596-.5386985889-1.4059131832l-.0529352601-.0389234046c-.2444401211-.1774906298-.4048043578-.2942608436-.826732733-.4172589445-.6601394211-.1915030792-1.6799354718-.2973747872-3.0266843198-.3145011802-1.1568024436-.0140124494-1.1786018308-.0140124494-1.8667649629-.0373664328-.1261114507-.0046709155-.2740222886-.0093415339-.4592980745-.0155694212-.8438615018-.0280248988-1.6301123736-.0591634443-2.3229508756-.0871883431-1.3218372989-.052935854-2.464627887-.0980868489-2.9208137997-.0731758937-1.6939473273.0934162304-3.3551955737,1.8044890598-4.4512799769,3.2213013427l.0000047514-.0000005939Z" fill="#211915"/></svg>